<svg width="4224" height="1475" xmlns="http://www.w3.org/2000/svg" xmlns:xlink="http://www.w3.org/1999/xlink" xml:space="preserve" overflow="hidden"><g transform="translate(-65 -344)"><rect x="3331" y="620" width="910" height="673" stroke="#000000" stroke-width="13.75" stroke-miterlimit="8" fill="#F2F2F2"/><rect x="3276" y="565" width="910" height="673" stroke="#000000" stroke-width="13.75" stroke-miterlimit="8" fill="#F2F2F2"/><rect x="122" y="510" width="768" height="1262" stroke="#000000" stroke-width="13.75" stroke-miterlimit="8" fill="#F2F2F2"/><rect x="1625" y="510" width="959" height="1262" stroke="#000000" stroke-width="13.75" stroke-miterlimit="8" fill="#F2F2F2"/><text font-family="Calibri,Calibri_MSFontService,sans-serif" font-weight="400" font-size="83" transform="matrix(1 0 0 1 998.885 859)">Visual &amp; inertial </text><text font-family="Calibri,Calibri_MSFontService,sans-serif" font-weight="400" font-size="83" transform="matrix(1 0 0 1 1092.29 958)">input data</text><text font-family="Calibri,Calibri_MSFontService,sans-serif" font-weight="400" font-size="83" transform="matrix(1 0 0 1 2769.79 1533)">Trajectory estimates</text><text font-family="Calibri,Calibri_MSFontService,sans-serif" font-weight="400" font-size="83" transform="matrix(1 0 0 1 1023.2 1446)">Sub</text><text font-family="Calibri,Calibri_MSFontService,sans-serif" font-weight="400" font-size="83" transform="matrix(1 0 0 1 1148.1 1446)">-</text><text font-family="Calibri,Calibri_MSFontService,sans-serif" font-weight="400" font-size="83" transform="matrix(1 0 0 1 1173.31 1446)">trajectory </text><text font-family="Calibri,Calibri_MSFontService,sans-serif" font-weight="400" font-size="83" transform="matrix(1 0 0 1 1005.49 1545)">error estimates</text><text font-family="Calibri,Calibri_MSFontService,sans-serif" font-weight="400" font-size="83" transform="matrix(1 0 0 1 155.419 631)">User AR device</text><text font-family="Calibri,Calibri_MSFontService,sans-serif" font-weight="400" font-size="83" transform="matrix(1 0 0 1 1663.08 628)">Server</text><rect x="3221" y="510" width="910" height="673" stroke="#000000" stroke-width="13.75" stroke-miterlimit="8" fill="#F2F2F2"/><text font-family="Calibri,Calibri_MSFontService,sans-serif" font-weight="400" font-size="83" transform="matrix(1 0 0 1 3256.05 628)">Playback AR </text><text font-family="Calibri,Calibri_MSFontService,sans-serif" font-weight="400" font-size="83" transform="matrix(1 0 0 1 3677.9 628)">device(</text><text font-family="Calibri,Calibri_MSFontService,sans-serif" font-weight="400" font-size="83" transform="matrix(1 0 0 1 3919.83 628)">s)</text><text font-family="Calibri,Calibri_MSFontService,sans-serif" font-style="italic" font-weight="400" font-size="83" transform="matrix(1 0 0 1 1179.83 1100)">HTTP</text><text font-family="Calibri,Calibri_MSFontService,sans-serif" font-style="italic" font-weight="400" font-size="83" transform="matrix(1 0 0 1 2653.3 1095)">Android Debug </text><text font-family="Calibri,Calibri_MSFontService,sans-serif" font-style="italic" font-weight="400" font-size="83" transform="matrix(1 0 0 1 2795.66 1194)">Bridge</text><text font-family="Calibri,Calibri_MSFontService,sans-serif" font-weight="400" font-size="83" transform="matrix(1 0 0 1 2638.12 852)">Visual &amp; inertial </text><text font-family="Calibri,Calibri_MSFontService,sans-serif" font-weight="400" font-size="83" transform="matrix(1 0 0 1 2731.53 951)">input data</text><rect x="1670.5" y="693.5" width="879" height="1042" stroke="#000000" stroke-width="20.625" stroke-miterlimit="8" stroke-dasharray="20.625 20.625" fill="#D9D9D9"/><text font-family="Calibri,Calibri_MSFontService,sans-serif" font-style="italic" font-weight="400" font-size="83" transform="matrix(1 0 0 1 1173.05 1685)">HTTP</text><rect x="3264.5" y="694.5" width="824" height="446" stroke="#000000" stroke-width="20.625" stroke-miterlimit="8" stroke-dasharray="20.625 20.625" fill="#D9D9D9"/><path d="M3678.67 1107.5 3678.67 1591.66 2506.06 1591.66 2506.06 1571.03 3668.36 1571.03 3658.05 1581.34 3658.05 1107.5ZM2516.37 1612.28 2454.5 1581.34 2516.37 1550.41Z"/><text font-family="Calibri,Calibri_MSFontService,sans-serif" font-style="italic" font-weight="400" font-size="83" transform="matrix(1 0 0 1 2741.89 1679)">Android Debug Bridge</text><rect x="93.5" y="354.5" width="838" height="1454" stroke="#000000" stroke-width="20.625" stroke-linecap="square" stroke-miterlimit="8" stroke-dasharray="61.875 20.625" fill="none"/><text font-family="Calibri,Calibri_MSFontService,sans-serif" font-weight="400" font-size="83" transform="matrix(1 0 0 1 115.448 464)">Frontend (visualization)</text><rect x="1594.5" y="354.5" width="2684" height="1454" stroke="#000000" stroke-width="20.625" stroke-linecap="square" stroke-miterlimit="8" stroke-dasharray="61.875 20.625" fill="none"/><text font-family="Calibri,Calibri_MSFontService,sans-serif" font-weight="400" font-size="83" transform="matrix(1 0 0 1 2374.57 461)">Backend (pose error </text><text font-family="Calibri,Calibri_MSFontService,sans-serif" font-weight="400" font-size="83" transform="matrix(1 0 0 1 3068.39 461)">estimation</text><text font-family="Calibri,Calibri_MSFontService,sans-serif" font-weight="400" font-size="83" transform="matrix(1 0 0 1 3425.36 461)">)</text><g><g><g><path d="M77.3438 115.156 87.6562 115.156 87.6562 128.906 77.3438 128.906Z" transform="matrix(1 0 0 1.00606 2395 520)"/><path d="M77.3438 135.781 87.6562 135.781 87.6562 146.094 77.3438 146.094Z" transform="matrix(1 0 0 1.00606 2395 520)"/><path d="M94.5312 135.781 144.375 135.781 144.375 146.094 94.5312 146.094Z" transform="matrix(1 0 0 1.00606 2395 520)"/><path d="M20.625 135.781 70.4688 135.781 70.4688 146.094 20.625 146.094Z" transform="matrix(1 0 0 1.00606 2395 520)"/><path d="M131.347 87.6562 33.6531 87.6562C30.2548 87.6562 27.5 90.4111 27.5 93.8094L27.5 109.003C27.5 112.401 30.2548 115.156 33.6531 115.156L131.347 115.156C134.745 115.156 137.5 112.401 137.5 109.003L137.5 93.8094C137.5 90.4111 134.745 87.6562 131.347 87.6562ZM44.6875 104.844C42.789 104.844 41.25 103.305 41.25 101.406 41.25 99.5077 42.789 97.9688 44.6875 97.9688 46.586 97.9688 48.125 99.5077 48.125 101.406 48.125 103.305 46.586 104.844 44.6875 104.844ZM61.875 104.844C59.9765 104.844 58.4375 103.305 58.4375 101.406 58.4375 99.5077 59.9765 97.9688 61.875 97.9688 63.7735 97.9688 65.3125 99.5077 65.3125 101.406 65.3125 103.305 63.7735 104.844 61.875 104.844ZM79.0625 104.844C77.164 104.844 75.625 103.305 75.625 101.406 75.625 99.5077 77.164 97.9688 79.0625 97.9688 80.961 97.9688 82.5 99.5077 82.5 101.406 82.5 103.305 80.961 104.844 79.0625 104.844Z" transform="matrix(1 0 0 1.00606 2395 520)"/><path d="M131.347 53.2812 33.6531 53.2812C30.2548 53.2812 27.5 56.0361 27.5 59.4344L27.5 74.6281C27.5 78.0264 30.2548 80.7812 33.6531 80.7812L131.347 80.7812C134.745 80.7812 137.5 78.0264 137.5 74.6281L137.5 59.4344C137.5 56.0361 134.745 53.2812 131.347 53.2812ZM44.6875 70.4688C42.789 70.4688 41.25 68.9298 41.25 67.0312 41.25 65.1327 42.789 63.5938 44.6875 63.5938 46.586 63.5938 48.125 65.1327 48.125 67.0312 48.125 68.9298 46.586 70.4688 44.6875 70.4688ZM61.875 70.4688C59.9765 70.4688 58.4375 68.9298 58.4375 67.0312 58.4375 65.1327 59.9765 63.5938 61.875 63.5938 63.7735 63.5938 65.3125 65.1327 65.3125 67.0312 65.3125 68.9298 63.7735 70.4688 61.875 70.4688ZM79.0625 70.4688C77.164 70.4688 75.625 68.9298 75.625 67.0312 75.625 65.1327 77.164 63.5938 79.0625 63.5938 80.961 63.5938 82.5 65.1327 82.5 67.0312 82.5 68.9298 80.961 70.4688 79.0625 70.4688Z" transform="matrix(1 0 0 1.00606 2395 520)"/><path d="M131.347 18.9062 33.6531 18.9062C30.2548 18.9062 27.5 21.6611 27.5 25.0594L27.5 40.2531C27.5 43.6514 30.2548 46.4062 33.6531 46.4062L131.347 46.4062C134.745 46.4062 137.5 43.6514 137.5 40.2531L137.5 25.0594C137.5 21.6611 134.745 18.9062 131.347 18.9062ZM44.6875 36.0938C42.789 36.0938 41.25 34.5548 41.25 32.6562 41.25 30.7577 42.789 29.2188 44.6875 29.2188 46.586 29.2188 48.125 30.7577 48.125 32.6562 48.125 34.5548 46.586 36.0938 44.6875 36.0938ZM61.875 36.0938C59.9765 36.0938 58.4375 34.5548 58.4375 32.6562 58.4375 30.7577 59.9765 29.2188 61.875 29.2188 63.7735 29.2188 65.3125 30.7577 65.3125 32.6562 65.3125 34.5548 63.7735 36.0938 61.875 36.0938ZM79.0625 36.0938C77.164 36.0938 75.625 34.5548 75.625 32.6562 75.625 30.7577 77.164 29.2188 79.0625 29.2188 80.961 29.2188 82.5 30.7577 82.5 32.6562 82.5 34.5548 80.961 36.0938 79.0625 36.0938Z" transform="matrix(1 0 0 1.00606 2395 520)"/></g></g></g><g><g><g><path d="M145 75.5208C106.635 75.5208 71.8958 91.2291 46.8229 116.302L64.0416 133.521C84.5833 112.677 113.281 99.6874 145 99.6874 176.719 99.6874 205.417 112.677 226.26 133.219L243.479 116C217.802 91.2291 183.364 75.5208 145 75.5208Z" transform="matrix(1.00345 0 0 1 1118 365)"/><path d="M72.4999 141.979 89.7187 159.198C103.312 144.698 123.25 135.937 145 135.937 166.75 135.937 186.385 144.698 200.583 158.896L217.5 141.979C198.771 123.25 173.094 111.771 145 111.771 116.906 111.771 90.927 123.25 72.4999 141.979Z" transform="matrix(1.00345 0 0 1 1118 365)"/><path d="M98.177 167.656 115.396 184.875C122.948 177.323 133.521 172.489 145.302 172.489 157.083 172.489 167.656 177.323 175.208 184.875L192.427 167.656C180.344 155.573 163.729 148.021 145.604 148.021 127.479 148.021 109.958 155.573 98.177 167.656Z" transform="matrix(1.00345 0 0 1 1118 365)"/><path d="M123.552 193.031 145 214.479 166.448 193.031C160.708 187.594 153.458 184.271 145 184.271 136.542 184.271 128.989 187.594 123.552 193.031Z" transform="matrix(1.00345 0 0 1 1118 365)"/></g></g></g><g><g><g><path d="M94.1874 114.166 42.8124 114.166 42.8124 22.8333 94.1874 22.8333 94.1874 114.166ZM62.7916 11.4166 74.2082 11.4166C75.778 11.4166 77.0624 12.701 77.0624 14.2708 77.0624 15.8406 75.778 17.125 74.2082 17.125L62.7916 17.125C61.2218 17.125 59.9374 15.8406 59.9374 14.2708 59.9374 12.701 61.2218 11.4166 62.7916 11.4166ZM99.8957 5.70832 37.1041 5.70832C35.5343 5.70832 34.25 6.9927 34.25 8.56249L34.25 128.437C34.25 130.007 35.5343 131.291 37.1041 131.291L99.8957 131.291C101.465 131.291 102.75 130.007 102.75 128.437L102.75 8.56249C102.75 6.9927 101.465 5.70832 99.8957 5.70832Z" transform="matrix(1 0 0 1 741 534)"/></g></g></g><rect x="166.5" y="692.5" width="692" height="1043" stroke="#000000" stroke-width="20.625" stroke-miterlimit="8" stroke-dasharray="20.625 20.625" fill="#D9D9D9"/><g><g><g><path d="M94.1874 114.166 42.8124 114.166 42.8124 22.8333 94.1874 22.8333 94.1874 114.166ZM62.7916 11.4166 74.2082 11.4166C75.778 11.4166 77.0624 12.701 77.0624 14.2708 77.0624 15.8406 75.778 17.125 74.2082 17.125L62.7916 17.125C61.2218 17.125 59.9374 15.8406 59.9374 14.2708 59.9374 12.701 61.2218 11.4166 62.7916 11.4166ZM99.8957 5.70832 37.1041 5.70832C35.5343 5.70832 34.25 6.9927 34.25 8.56249L34.25 128.437C34.25 130.007 35.5343 131.291 37.1041 131.291L99.8957 131.291C101.465 131.291 102.75 130.007 102.75 128.437L102.75 8.56249C102.75 6.9927 101.465 5.70832 99.8957 5.70832Z" transform="matrix(1 0 0 1 4003 531)"/></g></g></g><rect x="204.5" y="876.5" width="568" height="233" stroke="#001A57" stroke-width="20.625" stroke-linejoin="round" stroke-miterlimit="10" fill="#FFFFFF"/><text fill="#001A57" font-family="Calibri,Calibri_MSFontService,sans-serif" font-weight="700" font-size="83" transform="matrix(1 0 0 1 317.117 969)">Trajectory </text><text fill="#001A57" font-family="Calibri,Calibri_MSFontService,sans-serif" font-weight="700" font-size="83" transform="matrix(1 0 0 1 347.642 1068)">creation</text><rect x="199.5" y="1464.5" width="568" height="233" stroke="#993399" stroke-width="20.625" stroke-linejoin="round" stroke-miterlimit="10" fill="#FFFFFF"/><text fill="#993399" font-family="Calibri,Calibri_MSFontService,sans-serif" font-weight="700" font-size="83" transform="matrix(1 0 0 1 311.892 1558)">Trajectory </text><text fill="#993399" font-family="Calibri,Calibri_MSFontService,sans-serif" font-weight="700" font-size="83" transform="matrix(1 0 0 1 270.298 1657)">visualization</text><text font-family="Calibri,Calibri_MSFontService,sans-serif" font-weight="400" font-size="83" transform="matrix(1 0 0 1 193.343 1212)">Sub</text><text font-family="Calibri,Calibri_MSFontService,sans-serif" font-weight="400" font-size="83" transform="matrix(1 0 0 1 318.238 1212)">-</text><text font-family="Calibri,Calibri_MSFontService,sans-serif" font-weight="400" font-size="83" transform="matrix(1 0 0 1 343.447 1212)">trajectory </text><text font-family="Calibri,Calibri_MSFontService,sans-serif" font-weight="400" font-size="83" transform="matrix(1 0 0 1 278.524 1311)">pose and </text><text font-family="Calibri,Calibri_MSFontService,sans-serif" font-weight="400" font-size="83" transform="matrix(1 0 0 1 331.988 1410)">depth</text><path d="M718.812 1118.5 718.813 1410.23 698.188 1410.23 698.187 1118.5ZM739.438 1399.92 708.5 1461.79 677.563 1399.92Z"/><text font-family="Calibri,Calibri_MSFontService,sans-serif" font-weight="400" font-size="83" transform="matrix(1 0 0 1 216.355 813)">AR app (ARCore)</text><text font-family="Calibri,Calibri_MSFontService,sans-serif" font-weight="400" font-size="83" transform="matrix(1 0 0 1 1713.48 813)">Python app</text><text font-family="Calibri,Calibri_MSFontService,sans-serif" font-weight="400" font-size="83" transform="matrix(1 0 0 1 1742.36 1229)">Wait time</text><path d="M10.3125-0.00135092 10.3527 306.578-10.2723 306.581-10.3125 0.00135092ZM30.9763 296.263 0.046916 358.142-30.8987 296.271Z" transform="matrix(-1 0 0 1 2104.55 1106.5)"/><rect x="1753.5" y="1464.5" width="701" height="233" stroke="#339898" stroke-width="20.625" stroke-linejoin="round" stroke-miterlimit="10" fill="#FFFFFF"/><text fill="#339898" font-family="Calibri,Calibri_MSFontService,sans-serif" font-weight="700" font-size="83" transform="matrix(1 0 0 1 1788.56 1558)">Uncertainty</text><text fill="#339898" font-family="Calibri,Calibri_MSFontService,sans-serif" font-weight="700" font-size="83" transform="matrix(1 0 0 1 2190.91 1558)">-</text><text fill="#339898" font-family="Calibri,Calibri_MSFontService,sans-serif" font-weight="700" font-size="83" transform="matrix(1 0 0 1 2216.12 1558)">based </text><text fill="#339898" font-family="Calibri,Calibri_MSFontService,sans-serif" font-weight="700" font-size="83" transform="matrix(1 0 0 1 1825.51 1657)">error estimation</text><text font-family="Calibri,Calibri_MSFontService,sans-serif" font-weight="400" font-size="83" transform="matrix(1 0 0 1 3313.08 814)">AR app (ARCore)</text><rect x="3361.5" y="874.5" width="614" height="233" stroke="#005587" stroke-width="20.625" stroke-linejoin="round" stroke-miterlimit="10" fill="#FFFFFF"/><text fill="#005587" font-family="Calibri,Calibri_MSFontService,sans-serif" font-weight="700" font-size="83" transform="matrix(1 0 0 1 3503.22 967)">Sequence </text><text fill="#005587" font-family="Calibri,Calibri_MSFontService,sans-serif" font-weight="700" font-size="83" transform="matrix(1 0 0 1 3517.42 1066)">playback</text><path d="M0.00868391-10.3125 2537.9-8.1754 2537.88 12.4496-0.00868391 10.3125ZM2527.6-28.8091 2589.45 2.18051 2527.55 33.0659Z" transform="matrix(1 0 0 -1 772.5 992.68)"/><rect x="1757.5" y="873.5" width="694" height="233" stroke="#C84E00" stroke-width="20.625" stroke-linejoin="round" stroke-miterlimit="10" fill="#FFFFFF"/><text fill="#C84E00" font-family="Calibri,Calibri_MSFontService,sans-serif" font-weight="700" font-size="83" transform="matrix(1 0 0 1 1939.09 966)">Sequence </text><text fill="#C84E00" font-family="Calibri,Calibri_MSFontService,sans-serif" font-weight="700" font-size="83" transform="matrix(1 0 0 1 1909.1 1065)">assignment</text><path d="M1754.39 1591.81 819.063 1591.81 819.063 1571.19 1754.39 1571.19ZM829.375 1612.44 767.5 1581.5 829.375 1550.56Z"/><g><g><g><path d="M1905.85 1369.02C1881.04 1369.03 1860.92 1348.92 1860.91 1324.11 1860.9 1299.29 1881.01 1279.17 1905.83 1279.16 1930.64 1279.16 1950.76 1299.27 1950.77 1324.08 1950.77 1324.08 1950.77 1324.09 1950.77 1324.09 1950.81 1348.86 1930.77 1368.98 1906 1369.02 1905.95 1369.02 1905.9 1369.02 1905.85 1369.02ZM1943.87 1284.94 1948.68 1280.13C1950.48 1278.22 1950.41 1275.21 1948.52 1273.39 1946.67 1271.58 1943.73 1271.51 1941.79 1273.23L1936.33 1278.84C1928.7 1273.67 1919.85 1270.58 1910.67 1269.86L1910.67 1263.12 1925.1 1263.12 1925.1 1253.5 1886.6 1253.5 1886.6 1263.12 1901.04 1263.12 1901.04 1269.7C1870.95 1272.32 1848.68 1298.83 1851.3 1328.93 1853.91 1359.02 1880.43 1381.29 1910.52 1378.67 1940.61 1376.05 1962.88 1349.54 1960.27 1319.44 1959.13 1306.35 1953.31 1294.1 1943.87 1284.94Z"/><path d="M1933.06 1351.28C1948.09 1336.24 1948.08 1311.86 1933.04 1296.83 1925.82 1289.63 1916.05 1285.58 1905.85 1285.57L1905.85 1324.07Z"/></g></g></g></g></svg>